<svg xmlns="http://www.w3.org/2000/svg" width="20" height="20" viewBox="0 0 20 20" fill="none">
    <g clip-path="url(#clip0_1961_1719)">
        <path d="M9.1665 5.83366H10.8332V7.50033H9.1665V5.83366ZM9.1665 9.16699H10.8332V14.167H9.1665V9.16699ZM9.99984 1.66699C5.39984 1.66699 1.6665 5.40033 1.6665 10.0003C1.6665 14.6003 5.39984 18.3337 9.99984 18.3337C14.5998 18.3337 18.3332 14.6003 18.3332 10.0003C18.3332 5.40033 14.5998 1.66699 9.99984 1.66699ZM9.99984 16.667C6.32484 16.667 3.33317 13.6753 3.33317 10.0003C3.33317 6.32533 6.32484 3.33366 9.99984 3.33366C13.6748 3.33366 16.6665 6.32533 16.6665 10.0003C16.6665 13.6753 13.6748 16.667 9.99984 16.667Z" fill="#02C076"/>
    </g>
    <defs>
        <clipPath id="clip0_1961_1719">
            <rect width="20" height="20" fill="white"/>
        </clipPath>
    </defs>
</svg>