<svg xmlns="http://www.w3.org/2000/svg" width="128" height="85" viewBox="0 0 128 85" fill="none">
    <path d="M128 54.9277H121.626L122.218 70.9547H127.408L128 54.9277ZM124.813 78.6039C126.486 78.6039 127.977 77.1925 128 75.4167C127.977 73.6866 126.486 72.2751 124.813 72.2751C123.049 72.2751 121.603 73.6866 121.626 75.4167C121.603 77.1925 123.049 78.6039 124.813 78.6039Z" fill="#02C076"/>
    <path d="M12.5668 62.215H18.6225C18.5997 57.6391 15.071 54.6113 9.42517 54.6113C3.88175 54.6113 -0.0339267 57.5936 0.00022161 62.0329C-0.0111612 65.6754 2.51582 67.7015 6.64777 68.5894L8.96985 69.0902C11.5651 69.6594 12.453 70.3082 12.4758 71.3668C12.453 72.5164 11.4058 73.3246 9.37963 73.3246C6.9551 73.3246 5.52087 72.1863 5.41843 70.0464H0.0761068C0.0988724 75.8971 3.39229 78.5152 9.4707 78.5152C15.3784 78.5152 18.9184 75.9654 18.9412 71.3668C18.9184 67.8154 16.8012 65.3225 11.6562 64.2184L9.74388 63.8086C7.53562 63.3419 6.54532 62.6931 6.60224 61.5776C6.61362 60.5531 7.46733 59.8019 9.42517 59.8019C11.4741 59.8019 12.4416 60.7011 12.5668 62.215Z" fill="white"/>
    <path d="M23.6009 78.242H30.385L32.8437 68.8626H33.0258L35.4845 78.242H42.2687L46.6396 60.758H40.3564L38.444 71.3213H38.3075L35.9854 60.758H29.8842L27.6532 71.4123H27.5166L25.5132 60.758H19.2299L23.6009 78.242Z" fill="white"/>
    <path d="M51.8211 78.5152C54.0976 78.5152 55.8164 77.7411 56.875 75.7833H57.0116V78.242H62.8852V66.2673C62.8852 63.0346 59.8232 60.5304 54.8261 60.5304C49.6014 60.5304 47.0289 63.2622 46.8127 66.4494H52.5951C52.7431 65.3681 53.5399 64.8558 54.7351 64.8558C55.8278 64.8558 56.6019 65.3567 56.6019 66.2673V66.3128C56.6019 67.3259 55.4863 67.6446 52.5496 67.8609C48.9412 68.1227 46.1297 69.5797 46.1297 73.4157C46.1297 76.8988 48.4746 78.5152 51.8211 78.5152ZM53.87 74.554C52.8 74.554 52.0487 74.0304 52.0487 73.0514C52.0487 72.1522 52.6862 71.4578 54.1432 71.2302C55.1449 71.0708 55.9872 70.8659 56.6474 70.5928V72.0498C56.6474 73.6433 55.2928 74.554 53.87 74.554Z" fill="white"/>
    <path d="M64.2847 84.7985H70.568V75.3735H70.659C71.3875 77.1492 73.0722 78.4696 75.5309 78.4696C79.2644 78.4696 82.4061 75.5557 82.4061 69.5C82.4061 63.1712 79.0368 60.5304 75.5764 60.5304C72.9811 60.5304 71.342 62.0329 70.659 63.8086H70.5224V60.758H64.2847V84.7985ZM70.4314 69.5C70.4314 66.9047 71.4786 65.3567 73.2088 65.3567C74.939 65.3567 75.9406 66.9047 75.9406 69.5C75.9406 72.0953 74.939 73.6433 73.2088 73.6433C71.4786 73.6433 70.4314 72.0498 70.4314 69.5Z" fill="white"/>
    <path d="M94.7729 70.5928C94.7843 72.3229 93.7826 73.3702 92.2231 73.3702C90.6409 73.3702 89.7303 72.3229 89.7189 70.5928V60.758H83.4356V71.9132C83.447 75.7378 85.8602 78.4696 89.5368 78.4696C92.1435 78.4696 94.1468 77.1492 94.9095 74.9182H95.0916V78.242H101.056V60.758H94.7729V70.5928Z" fill="white"/>
    <path d="M102.831 78.242H118.175V73.4612H110.936V73.3702L117.902 64.5826V60.758H103.105V65.5388H110.481V65.6299L102.831 74.7816V78.242Z" fill="white"/>
    <path fill-rule="evenodd" clip-rule="evenodd" d="M72.8662 0.33614C74.3792 -0.580832 76.3174 0.483895 76.355 2.25265L76.5832 12.9732L87.6901 14.8879C89.4335 15.1885 90.1978 17.2636 89.0658 18.6232L81.6749 27.5001L87.2877 32.0098C88.6668 33.1179 88.3292 35.3034 86.68 35.9437L76.5374 39.8817L77.7807 46.1498C78.1249 47.8852 76.4615 49.3424 74.7865 48.7728L67.5514 46.3125C59.2997 50.3198 49.4135 48.2421 43.4523 41.443C52.2817 43.992 59.3584 41.3275 62.7174 38.5734C63.5354 37.9027 63.6548 36.696 62.9841 35.8781C62.3135 35.0602 61.1068 34.9408 60.2888 35.6114C57.5005 37.8976 49.8849 40.9027 40.0267 36.0012C36.1135 26.853 39.4273 15.9845 48.1818 10.6786C52.0339 8.34393 56.3534 7.44143 60.5198 7.81896L72.8662 0.33614ZM56.4505 23.5828C54.6414 24.6793 52.286 24.1016 51.1895 22.2925C50.0931 20.4834 50.6708 18.1279 52.4799 17.0315C54.289 15.935 56.6444 16.5128 57.7409 18.3219C58.8373 20.131 58.2596 22.4864 56.4505 23.5828Z" fill="#02C076"/>
</svg>