<svg xmlns="http://www.w3.org/2000/svg" width="138" height="30" viewBox="0 0 138 30" fill="none">
    <path d="M137.935 6.25781H132.868L133.339 18.9977H137.465L137.935 6.25781ZM135.402 25.0782C136.732 25.0782 137.917 23.9562 137.935 22.5447C137.917 21.1693 136.732 20.0473 135.402 20.0473C133.999 20.0473 132.85 21.1693 132.868 22.5447C132.85 23.9562 133.999 25.0782 135.402 25.0782Z" fill="#02C076"/>
    <path d="M46.1818 12.0481H50.9955C50.9774 8.41074 48.1724 6.00391 43.6845 6.00391C39.278 6.00391 36.1654 8.37455 36.1926 11.9034C36.1835 14.7988 38.1922 16.4094 41.4767 17.1152L43.3226 17.5133C45.3856 17.9657 46.0913 18.4814 46.1094 19.3229C46.0913 20.2368 45.2589 20.8792 43.6483 20.8792C41.721 20.8792 40.581 19.9744 40.4995 18.2733H36.2529C36.271 22.9241 38.8889 25.0052 43.7207 25.0052C48.4167 25.0052 51.2307 22.9784 51.2488 19.3229C51.2307 16.4999 49.5478 14.5183 45.458 13.6406L43.9379 13.3149C42.1825 12.9439 41.3953 12.4282 41.4405 11.5414C41.4496 10.7271 42.1282 10.1299 43.6845 10.1299C45.3132 10.1299 46.0823 10.8447 46.1818 12.0481Z" fill="white"/>
    <path d="M54.9529 24.7881H60.3456L62.3001 17.3323H62.4448L64.3993 24.7881H69.792L73.2665 10.89H68.2719L66.7518 19.2867H66.6432L64.7974 10.89H59.9475L58.1741 19.3591H58.0655L56.473 10.89H51.4784L54.9529 24.7881Z" fill="white"/>
    <path d="M77.3853 25.0052C79.1949 25.0052 80.5612 24.3899 81.4027 22.8337H81.5113V24.7881H86.1802V15.2693C86.1802 12.6996 83.7462 10.709 79.774 10.709C75.6209 10.709 73.576 12.8806 73.4041 15.4141H78.0006C78.1182 14.5545 78.7516 14.1473 79.7016 14.1473C80.5703 14.1473 81.1856 14.5455 81.1856 15.2693V15.3055C81.1856 16.1108 80.2988 16.3642 77.9644 16.5361C75.0961 16.7442 72.8612 17.9024 72.8612 20.9516C72.8612 23.7204 74.7251 25.0052 77.3853 25.0052ZM79.014 21.8564C78.1634 21.8564 77.5663 21.4402 77.5663 20.6621C77.5663 19.9473 78.073 19.3953 79.2311 19.2143C80.0274 19.0877 80.697 18.9248 81.2218 18.7076V19.8658C81.2218 21.1326 80.145 21.8564 79.014 21.8564Z" fill="white"/>
    <path d="M87.2927 29.9999H92.2873V22.5079H92.3597C92.9388 23.9194 94.2779 24.969 96.2323 24.969C99.2002 24.969 101.697 22.6527 101.697 17.839C101.697 12.8082 99.0192 10.709 96.2685 10.709C94.2055 10.709 92.9026 11.9034 92.3597 13.3149H92.2511V10.89H87.2927V29.9999ZM92.1787 17.839C92.1787 15.776 93.0112 14.5455 94.3865 14.5455C95.7618 14.5455 96.5581 15.776 96.5581 17.839C96.5581 19.902 95.7618 21.1326 94.3865 21.1326C93.0112 21.1326 92.1787 19.8658 92.1787 17.839Z" fill="white"/>
    <path d="M111.528 18.7076C111.537 20.083 110.741 20.9154 109.501 20.9154C108.243 20.9154 107.52 20.083 107.511 18.7076V10.89H102.516V19.7572C102.525 22.7975 104.443 24.969 107.366 24.969C109.438 24.969 111.03 23.9194 111.637 22.146H111.781V24.7881H116.523V10.89H111.528V18.7076Z" fill="white"/>
    <path d="M117.934 24.7881H130.131V20.9878H124.376V20.9154L129.914 13.9302V10.89H118.151V14.6902H124.014V14.7626L117.934 22.0374V24.7881Z" fill="white"/>
    <path fill-rule="evenodd" clip-rule="evenodd" d="M19.7359 0.19248C20.6022 -0.332595 21.7121 0.277087 21.7337 1.28991L21.8643 7.4287L28.2243 8.52508C29.2227 8.69718 29.6603 9.88546 29.0121 10.664L24.7799 15.747L27.9939 18.3294C28.7836 18.9639 28.5903 20.2154 27.6459 20.582L21.8381 22.837L22.55 26.4262C22.7471 27.4199 21.7946 28.2543 20.8355 27.9282L16.6926 26.5194C11.9675 28.814 6.30642 27.6243 2.89297 23.731C7.94881 25.1906 12.0011 23.6649 13.9245 22.0878C14.3929 21.7038 14.4613 21.0128 14.0772 20.5444C13.6932 20.0761 13.0022 20.0077 12.5339 20.3917C10.9372 21.7008 6.5764 23.4216 0.931371 20.6149C-1.3094 15.3765 0.58814 9.15303 5.60113 6.11478C7.80695 4.77788 10.2804 4.2611 12.6661 4.47728L19.7359 0.19248ZM10.336 13.504C9.30004 14.1318 7.95128 13.801 7.32343 12.7651C6.69558 11.7291 7.02639 10.3804 8.06232 9.75254C9.09824 9.12469 10.447 9.4555 11.0748 10.4914C11.7027 11.5274 11.3719 12.8761 10.336 13.504Z" fill="#02C076"/>
</svg>