<svg xmlns="http://www.w3.org/2000/svg" width="146" height="36" viewBox="0 0 146 36" fill="none">
    <path d="M145.935 12.2578H140.868L141.339 24.9977H145.465L145.935 12.2578ZM143.402 31.0782C144.732 31.0782 145.917 29.9562 145.935 28.5447C145.917 27.1693 144.732 26.0473 143.402 26.0473C141.999 26.0473 140.85 27.1693 140.868 28.5447C140.85 29.9562 141.999 31.0782 143.402 31.0782Z" fill="#02C076"/>
    <path d="M54.1818 18.0481H58.9955C58.9774 14.4107 56.1724 12.0039 51.6845 12.0039C47.278 12.0039 44.1654 14.3745 44.1926 17.9034C44.1835 20.7988 46.1922 22.4094 49.4767 23.1152L51.3226 23.5133C53.3856 23.9657 54.0913 24.4814 54.1094 25.3229C54.0913 26.2368 53.2589 26.8792 51.6483 26.8792C49.721 26.8792 48.581 25.9744 48.4995 24.2733H44.2529C44.271 28.9241 46.8889 31.0052 51.7207 31.0052C56.4167 31.0052 59.2307 28.9784 59.2488 25.3229C59.2307 22.4999 57.5478 20.5183 53.458 19.6406L51.9379 19.3149C50.1825 18.9439 49.3953 18.4282 49.4405 17.5414C49.4496 16.7271 50.1282 16.1299 51.6845 16.1299C53.3132 16.1299 54.0823 16.8447 54.1818 18.0481Z" fill="white"/>
    <path d="M62.9529 30.7881H68.3456L70.3001 23.3323H70.4448L72.3993 30.7881H77.792L81.2665 16.89H76.2719L74.7518 25.2867H74.6432L72.7974 16.89H67.9475L66.1741 25.3591H66.0655L64.473 16.89H59.4784L62.9529 30.7881Z" fill="white"/>
    <path d="M85.3853 31.0052C87.1949 31.0052 88.5612 30.3899 89.4027 28.8337H89.5113V30.7881H94.1802V21.2693C94.1802 18.6996 91.7462 16.709 87.774 16.709C83.6209 16.709 81.576 18.8806 81.4041 21.4141H86.0006C86.1182 20.5545 86.7516 20.1473 87.7016 20.1473C88.5703 20.1473 89.1856 20.5455 89.1856 21.2693V21.3055C89.1856 22.1108 88.2988 22.3642 85.9644 22.5361C83.0961 22.7442 80.8612 23.9024 80.8612 26.9516C80.8612 29.7204 82.7251 31.0052 85.3853 31.0052ZM87.014 27.8564C86.1634 27.8564 85.5663 27.4402 85.5663 26.6621C85.5663 25.9473 86.073 25.3953 87.2311 25.2143C88.0274 25.0877 88.697 24.9248 89.2218 24.7076V25.8658C89.2218 27.1326 88.145 27.8564 87.014 27.8564Z" fill="white"/>
    <path d="M95.2927 35.9999H100.287V28.5079H100.36C100.939 29.9194 102.278 30.969 104.232 30.969C107.2 30.969 109.697 28.6527 109.697 23.839C109.697 18.8082 107.019 16.709 104.269 16.709C102.206 16.709 100.903 17.9034 100.36 19.3149H100.251V16.89H95.2927V35.9999ZM100.179 23.839C100.179 21.776 101.011 20.5455 102.387 20.5455C103.762 20.5455 104.558 21.776 104.558 23.839C104.558 25.902 103.762 27.1326 102.387 27.1326C101.011 27.1326 100.179 25.8658 100.179 23.839Z" fill="white"/>
    <path d="M119.528 24.7076C119.537 26.083 118.741 26.9154 117.501 26.9154C116.243 26.9154 115.52 26.083 115.511 24.7076V16.89H110.516V25.7572C110.525 28.7975 112.443 30.969 115.366 30.969C117.438 30.969 119.03 29.9194 119.637 28.146H119.781V30.7881H124.523V16.89H119.528V24.7076Z" fill="white"/>
    <path d="M125.934 30.7881H138.131V26.9878H132.376V26.9154L137.914 19.9302V16.89H126.151V20.6902H132.014V20.7626L125.934 28.0374V30.7881Z" fill="white"/>
    <path fill-rule="evenodd" clip-rule="evenodd" d="M23.8826 0.232922C24.931 -0.402476 26.274 0.335305 26.3001 1.56093L26.4582 8.98953L34.1545 10.3163C35.3626 10.5245 35.8922 11.9625 35.1078 12.9046L29.9864 19.0556L33.8757 22.1806C34.8313 22.9484 34.5974 24.4628 33.4546 24.9065L26.4265 27.6352L27.288 31.9786C27.5265 33.1811 26.3739 34.1908 25.2132 33.7962L20.1998 32.0913C14.482 34.8681 7.63146 33.4284 3.50081 28.7171C9.61893 30.4834 14.5226 28.6371 16.8502 26.7287C17.417 26.264 17.4997 25.4278 17.035 24.861C16.5703 24.2943 15.7341 24.2115 15.1673 24.6762C13.2352 26.2604 7.95816 28.3428 1.12706 24.9463C-1.58451 18.6073 0.711714 11.0762 6.77798 7.39955C9.44726 5.78176 12.4404 5.15639 15.3274 5.418L23.8826 0.232922ZM12.5076 16.3413C11.2541 17.101 9.62192 16.7007 8.86216 15.4471C8.10239 14.1935 8.50271 12.5614 9.75629 11.8016C11.0099 11.0419 12.642 11.4422 13.4018 12.6958C14.1615 13.9494 13.7612 15.5815 12.5076 16.3413Z" fill="#02C076"/>
</svg>