<svg xmlns="http://www.w3.org/2000/svg" width="115" height="28" viewBox="0 0 115 28" fill="none">
    <path d="M29.9785 9.92285L41.5169 9.92285V12.0709L36.9738 12.0709V24.1795H34.4836V12.0709H29.9595L29.9785 9.92285ZM41.0227 13.8577H43.1517V15.8536H43.1897C43.2657 15.5685 43.3988 15.3024 43.5889 15.0362C43.779 14.7701 44.0071 14.523 44.2922 14.3139C44.5583 14.0858 44.8625 13.9147 45.2046 13.7817C45.5278 13.6486 45.8699 13.5726 46.2121 13.5726C46.4782 13.5726 46.6683 13.5916 46.7634 13.5916C46.8584 13.6106 46.9725 13.6296 47.0675 13.6296V15.8156C46.9154 15.7776 46.7443 15.7586 46.5733 15.7396C46.4022 15.7206 46.2501 15.7016 46.079 15.7016C45.6989 15.7016 45.3377 15.7776 44.9955 15.9297C44.6534 16.0817 44.3682 16.3098 44.1021 16.595C43.855 16.8991 43.6459 17.2603 43.4938 17.6975C43.3418 18.1347 43.2657 18.6479 43.2657 19.2182V24.1225H40.9846L41.0227 13.8577ZM57.5224 24.1795H55.2793V22.7349H55.2413C54.9562 23.2671 54.538 23.6663 53.9867 23.9894C53.4355 24.3126 52.8652 24.4647 52.295 24.4647C50.9453 24.4647 49.9569 24.1415 49.3486 23.4572C48.7403 22.7919 48.4361 21.7654 48.4361 20.4158V13.8577L50.7172 13.8577V20.1877C50.7172 21.1001 50.8883 21.7464 51.2495 22.1076C51.5916 22.4877 52.0858 22.6778 52.7131 22.6778C53.1884 22.6778 53.5876 22.6018 53.9107 22.4497C54.2339 22.2977 54.5 22.1076 54.6901 21.8604C54.8992 21.6133 55.0322 21.3092 55.1273 20.967C55.2223 20.6249 55.2603 20.2447 55.2603 19.8455V13.8577H57.5414V24.1795H57.5224ZM61.4002 20.872C61.4763 21.5373 61.7234 21.9935 62.1606 22.2786C62.5978 22.5448 63.13 22.6778 63.7383 22.6778C63.9474 22.6778 64.1945 22.6588 64.4607 22.6208C64.7268 22.5828 64.9929 22.5258 65.221 22.4307C65.4681 22.3357 65.6582 22.2026 65.8103 22.0125C65.9624 21.8224 66.0384 21.5943 66.0194 21.3092C66.0004 21.0241 65.9053 20.7769 65.6962 20.5868C65.4871 20.3968 65.24 20.2637 64.9359 20.1306C64.6317 20.0166 64.2706 19.9215 63.8714 19.8455C63.4722 19.7695 63.073 19.6744 62.6548 19.5794C62.2366 19.4843 61.8184 19.3703 61.4192 19.2372C61.02 19.1042 60.6779 18.9331 60.3547 18.686C60.0506 18.4578 59.7845 18.1727 59.6134 17.8116C59.4233 17.4504 59.3283 17.0322 59.3283 16.4999C59.3283 15.9297 59.4613 15.4735 59.7464 15.0933C60.0126 14.7131 60.3737 14.409 60.7919 14.1808C61.2101 13.9527 61.6854 13.7817 62.1986 13.6866C62.7118 13.5916 63.2061 13.5535 63.6623 13.5535C64.1945 13.5535 64.7078 13.6106 65.183 13.7246C65.6582 13.8387 66.1144 14.0098 66.4946 14.2759C66.8938 14.523 67.2169 14.8652 67.4641 15.2644C67.7302 15.6635 67.8823 16.1578 67.9583 16.728H65.5822C65.4681 16.1768 65.221 15.8156 64.8408 15.6255C64.4417 15.4354 64.0044 15.3404 63.4912 15.3404C63.3391 15.3404 63.13 15.3594 62.9209 15.3784C62.6928 15.4164 62.5027 15.4544 62.2936 15.5305C62.1036 15.6065 61.9325 15.7206 61.7994 15.8536C61.6663 15.9867 61.5903 16.1768 61.5903 16.4049C61.5903 16.69 61.6854 16.8991 61.8754 17.0702C62.0655 17.2413 62.3126 17.3743 62.6358 17.5074C62.9399 17.6215 63.3011 17.7165 63.7003 17.7925C64.0995 17.8686 64.5177 17.9636 64.9359 18.0587C65.3541 18.1537 65.7533 18.2678 66.1525 18.4008C66.5516 18.5339 66.9128 18.705 67.217 18.9521C67.5211 19.1802 67.7872 19.4653 67.9773 19.8075C68.1674 20.1496 68.2624 20.5868 68.2624 21.0811C68.2624 21.6894 68.1294 22.2026 67.8442 22.6398C67.5591 23.058 67.1979 23.4192 66.7607 23.6853C66.3235 23.9514 65.8103 24.1415 65.278 24.2746C64.7268 24.3886 64.1945 24.4647 63.6623 24.4647C63.016 24.4647 62.4077 24.3886 61.8564 24.2366C61.3052 24.0845 60.8109 23.8564 60.4118 23.5712C60.0126 23.2671 59.6894 22.9059 59.4613 22.4497C59.2332 22.0125 59.1001 21.4803 59.0811 20.853H61.3812V20.872H61.4002ZM68.9087 13.8577H70.6386V10.7402H72.9196V13.8387H74.9726V15.5305H72.9196V21.0431C72.9196 21.2902 72.9386 21.4803 72.9576 21.6704C72.9767 21.8414 73.0337 21.9935 73.0907 22.1076C73.1667 22.2216 73.2808 22.3167 73.4139 22.3737C73.5659 22.4307 73.756 22.4687 74.0221 22.4687C74.1742 22.4687 74.3453 22.4687 74.4974 22.4497C74.6494 22.4307 74.8205 22.4117 74.9726 22.3737V24.1415C74.7255 24.1795 74.4784 24.1985 74.2312 24.2176C73.9841 24.2556 73.756 24.2556 73.4899 24.2556C72.8816 24.2556 72.4064 24.1985 72.0452 24.0845C71.684 23.9704 71.3989 23.7994 71.1898 23.5903C70.9807 23.3622 70.8477 23.096 70.7716 22.7729C70.6956 22.4497 70.6576 22.0505 70.6386 21.6323V15.5495L68.9087 15.5495V13.8197V13.8577ZM76.5693 13.8577H78.7173V15.2644H78.7554C79.0785 14.6561 79.5157 14.2379 80.086 13.9717C80.6563 13.7056 81.2645 13.5726 81.9489 13.5726C82.7662 13.5726 83.4696 13.7056 84.0779 14.0098C84.6861 14.2949 85.1804 14.6751 85.5796 15.1883C85.9788 15.6825 86.2829 16.2718 86.473 16.9371C86.6631 17.6025 86.7771 18.3248 86.7771 19.0661C86.7771 19.7695 86.6821 20.4348 86.511 21.0811C86.3209 21.7274 86.0548 22.3167 85.6936 22.8109C85.3324 23.3051 84.8762 23.7043 84.306 24.0085C83.7357 24.3126 83.0894 24.4647 82.329 24.4647C82.0059 24.4647 81.6637 24.4267 81.3406 24.3696C81.0174 24.3126 80.6943 24.2176 80.3901 24.0845C80.086 23.9514 79.8009 23.7803 79.5537 23.5712C79.2876 23.3622 79.0785 23.115 78.9074 22.8489H78.8694V28.0003H76.5883V13.8577H76.5693ZM84.5341 19.0281C84.5341 18.5719 84.4771 18.1157 84.344 17.6785C84.2299 17.2413 84.0398 16.8611 83.7927 16.5189C83.5456 16.1768 83.2415 15.9107 82.8993 15.7016C82.5381 15.4925 82.1199 15.3974 81.6637 15.3974C80.7133 15.3974 79.9909 15.7206 79.4967 16.3859C79.0215 17.0512 78.7744 17.9446 78.7744 19.0471C78.7744 19.5794 78.8314 20.0546 78.9645 20.4918C79.0975 20.929 79.2686 21.3092 79.5347 21.6323C79.7818 21.9555 80.086 22.2026 80.4472 22.3927C80.8083 22.5828 81.2075 22.6778 81.6827 22.6778C82.215 22.6778 82.6332 22.5638 82.9944 22.3547C83.3555 22.1456 83.6407 21.8604 83.8878 21.5373C84.1159 21.1951 84.287 20.815 84.382 20.3778C84.477 19.9215 84.5341 19.4843 84.5341 19.0281ZM88.545 9.92285H90.826V12.0709H88.545V9.92285ZM88.545 13.8577H90.826V24.1795H88.545V13.8577ZM92.86 9.92285H95.1411V24.1795H92.86V9.92285ZM102.098 24.4647C101.281 24.4647 100.54 24.3316 99.8933 24.0465C99.247 23.7613 98.7147 23.4002 98.2585 22.9249C97.8213 22.4497 97.4791 21.8604 97.251 21.1951C97.0229 20.5298 96.8899 19.7885 96.8899 19.0091C96.8899 18.2297 97.0039 17.5074 97.251 16.8421C97.4791 16.1768 97.8213 15.6065 98.2585 15.1123C98.6957 14.6371 99.247 14.2569 99.8933 13.9908C100.54 13.7246 101.281 13.5726 102.098 13.5726C102.916 13.5726 103.657 13.7056 104.303 13.9908C104.95 14.2569 105.482 14.6371 105.938 15.1123C106.375 15.5875 106.717 16.1768 106.946 16.8421C107.174 17.5074 107.307 18.2297 107.307 19.0091C107.307 19.8075 107.193 20.5298 106.946 21.1951C106.698 21.8604 106.375 22.4307 105.938 22.9249C105.501 23.4002 104.95 23.7803 104.303 24.0465C103.657 24.3126 102.935 24.4647 102.098 24.4647ZM102.098 22.6588C102.593 22.6588 103.049 22.5448 103.41 22.3357C103.79 22.1266 104.075 21.8414 104.322 21.4993C104.569 21.1571 104.741 20.7579 104.855 20.3397C104.969 19.9025 105.026 19.4653 105.026 19.0091C105.026 18.5719 104.969 18.1347 104.855 17.6975C104.741 17.2603 104.569 16.8801 104.322 16.538C104.075 16.1958 103.771 15.9297 103.41 15.7206C103.03 15.5115 102.593 15.3974 102.098 15.3974C101.604 15.3974 101.148 15.5115 100.787 15.7206C100.407 15.9297 100.121 16.2148 99.8743 16.538C99.6272 16.8801 99.4561 17.2603 99.342 17.6975C99.228 18.1347 99.1709 18.5719 99.1709 19.0091C99.1709 19.4653 99.228 19.9025 99.342 20.3397C99.4561 20.7769 99.6272 21.1571 99.8743 21.4993C100.121 21.8414 100.426 22.1266 100.787 22.3357C101.167 22.5638 101.604 22.6588 102.098 22.6588ZM107.991 13.8577H109.721V10.7402H112.002V13.8387H114.055V15.5305H112.002V21.0431C112.002 21.2902 112.021 21.4803 112.04 21.6704C112.059 21.8414 112.116 21.9935 112.173 22.1076C112.249 22.2216 112.363 22.3167 112.496 22.3737C112.648 22.4307 112.838 22.4687 113.104 22.4687C113.257 22.4687 113.428 22.4687 113.58 22.4497C113.732 22.4307 113.903 22.4117 114.055 22.3737V24.1415C113.808 24.1795 113.561 24.1985 113.314 24.2176C113.066 24.2556 112.838 24.2556 112.572 24.2556C111.964 24.2556 111.489 24.1985 111.128 24.0845C110.766 23.9704 110.481 23.7994 110.272 23.5903C110.063 23.3622 109.93 23.096 109.854 22.7729C109.778 22.4497 109.74 22.0505 109.721 21.6323V15.5495H107.991V13.8197V13.8577Z" fill="white"/>
    <path d="M27.3158 9.92266L16.8799 9.92266L13.6674 0L10.4359 9.92266L0 9.90365L8.43996 16.0435L5.20844 25.9662L13.6484 19.8263L22.0884 25.9662L18.8759 16.0435L27.3158 9.92266Z" fill="#00B67A"/>
    <path d="M19.6007 18.286L18.8784 16.043L13.6699 19.8257L19.6007 18.286Z" fill="#005128"/>
</svg>