<svg xmlns="http://www.w3.org/2000/svg" width="128" height="24" viewBox="0 0 128 24" fill="none">
    <g clip-path="url(#clip0_1961_1808)">
        <path d="M0.0551758 0.00683594H24.0424V23.994H0.0551758V0.00683594ZM26.0413 0.00683594H50.0285V23.994H26.0413V0.00683594ZM52.0275 0.00683594H76.0147V23.994H52.0275V0.00683594ZM78.0136 0.00683594H102.001V23.994H78.0136V0.00683594ZM104 0.00683594H127.987V23.994H104V0.00683594Z" fill="#00B67A"/>
        <path d="M12.0488 16.1732L15.6969 15.2487L17.2211 19.9462L12.0488 16.1732ZM20.4444 10.1015H14.0228L12.0488 4.05469L10.0749 10.1015H3.65332L8.85055 13.8495L6.8766 19.8962L12.0738 16.1482L15.2721 13.8495L20.4444 10.1015ZM38.035 16.1732L41.683 15.2487L43.2072 19.9462L38.035 16.1732ZM46.4305 10.1015H40.0089L38.035 4.05469L36.061 10.1015H29.6395L34.8367 13.8495L32.8627 19.8962L38.06 16.1482L41.2583 13.8495L46.4305 10.1015ZM64.0211 16.1732L67.6692 15.2487L69.1934 19.9462L64.0211 16.1732ZM72.4166 10.1015H65.9951L64.0211 4.05469L62.0472 10.1015H55.6256L60.8228 13.8495L58.8489 19.8962L64.0461 16.1482L67.2444 13.8495L72.4166 10.1015ZM90.0073 16.1732L93.6553 15.2487L95.1795 19.9462L90.0073 16.1732ZM98.4028 10.1015H91.9812L90.0073 4.05469L88.0333 10.1015H81.6117L86.809 13.8495L84.835 19.8962L90.0322 16.1482L93.2305 13.8495L98.4028 10.1015ZM115.993 16.1732L119.641 15.2487L121.166 19.9462L115.993 16.1732ZM124.389 10.1015H117.967L115.993 4.05469L114.019 10.1015H107.598L112.795 13.8495L110.821 19.8962L116.018 16.1482L119.217 13.8495L124.389 10.1015Z" fill="white"/>
    </g>
    <defs>
        <clipPath id="clip0_1961_1808">
            <rect width="127.932" height="24" fill="white" transform="translate(0.0551758)"/>
        </clipPath>
    </defs>
</svg>