<svg xmlns="http://www.w3.org/2000/svg" width="20" height="20" viewBox="0 0 20 20" fill="none">
    <path d="M19.0853 5.30887C18.8672 4.48769 18.2246 3.84095 17.4088 3.62148C15.9299 3.22266 10 3.22266 10 3.22266C10 3.22266 4.07019 3.22266 2.59133 3.62148C1.77546 3.84099 1.13289 4.48769 0.914805 5.30887C0.518555 6.79731 0.518555 9.9028 0.518555 9.9028C0.518555 9.9028 0.518555 13.0083 0.914805 14.4967C1.13289 15.3179 1.77546 15.9377 2.59133 16.1572C4.07019 16.556 10 16.556 10 16.556C10 16.556 15.9299 16.556 17.4088 16.1572C18.2246 15.9377 18.8672 15.3179 19.0853 14.4967C19.4815 13.0083 19.4815 9.9028 19.4815 9.9028C19.4815 9.9028 19.4815 6.79731 19.0853 5.30887ZM8.06064 12.7223V7.08325L13.0169 9.90287L8.06064 12.7223Z" fill="#29282A"/>
</svg>